<svg width="366" height="328" viewBox="0 0 366 328" fill="none" xmlns="http://www.w3.org/2000/svg">
<path d="M354.119 122.488C351.723 124.646 348.873 126.357 345.735 127.522C342.596 128.688 339.231 129.285 335.834 129.278H203.645C183.372 129.278 171.148 109.355 181.542 94.0694C186.846 86.241 192.893 86.305 193.337 83.3069C193.408 82.8969 193.365 82.4229 193.194 81.8719C184.029 51.1604 209.864 21.9094 244.334 21.9094C264.721 21.9094 282.392 32.2107 291.27 47.3166C293.644 51.4166 296.732 47.086 308.441 47.086C331.43 47.086 348.944 64.4341 348.115 83.6657C348.072 84.87 348.729 85.9847 349.859 86.6254C363.77 94.71 365.714 112.097 354.119 122.488Z" fill="white"/>
<path d="M332.317 129.278H203.645C183.372 129.278 171.148 109.355 181.542 94.0694C186.846 86.2409 192.893 86.305 193.337 83.3069C204.46 80.3728 216.212 78.7969 228.393 78.7969C271.912 78.7969 310.199 98.8869 332.317 129.278Z" fill="#CBE8F6"/>
<path d="M309.829 306.091C307.942 306.091 54.2924 306.105 52.7712 306.065C25.9202 305.362 4.30479 285.629 4.30479 261.298C4.30479 245.5 13.4262 231.624 27.1941 223.655C28.2603 223.04 29.1303 222.188 29.7192 221.182C30.308 220.176 30.5956 219.05 30.5539 217.915C28.4908 171.728 79.9567 135.168 131.804 150.829C135.164 151.841 138.795 150.47 140.454 147.664C157.596 118.452 191.765 98.5281 231.153 98.5281C298.579 98.5281 347.729 156.027 330.016 214.456C329.13 217.377 330.588 220.426 333.562 221.861C379.239 244.013 361.302 306.091 309.829 306.091Z" fill="#CBE8F6"/>
<path d="M309.829 306.091C307.942 306.091 54.2924 306.105 52.7712 306.065C40.8762 298.006 33.1416 284.948 33.1416 270.472C33.1416 254.687 42.2487 240.811 56.0166 232.829C57.0852 232.219 57.9581 231.37 58.5497 230.366C59.1413 229.361 59.4311 228.237 59.3906 227.102C57.3233 180.681 109.177 144.36 160.627 160.015C164.001 161.028 167.632 159.657 169.276 156.838C190.164 121.287 234.639 101.584 279.534 109.393C321.468 129.561 342.589 172.982 330.016 214.456C329.13 217.377 330.588 220.426 333.562 221.861C379.239 244.013 361.302 306.091 309.829 306.091Z" fill="white"/>
<path d="M148.846 104.934C148.846 107.1 148.417 109.175 147.645 111.11C144.829 118.08 137.366 123.064 128.616 123.064H25.1782C19.5882 123.064 14.5271 121.04 10.8671 117.76C7.20706 114.48 4.93385 109.944 4.93385 104.934C4.93385 98.5409 8.63674 92.9291 14.1982 89.7003C15.0846 89.1878 15.5993 88.3166 15.5707 87.3812C15.0846 74.1331 25.2211 62.6147 39.2035 59.5653C41.5624 59.04 44.0501 58.7581 46.6092 58.7581C55.8164 58.7581 58.1611 62.1406 60.0483 58.9375C66.9966 47.1116 80.8217 39.0525 96.7627 39.0525C124.027 39.0525 143.971 62.2944 136.78 85.9719C136.422 87.1506 137.008 88.3934 138.224 88.97C141.383 90.5075 144.042 92.7753 145.901 95.5172C147.836 98.3514 148.856 101.612 148.846 104.934Z" fill="#CBE8F6"/>
<path d="M148.846 104.934C148.846 107.1 148.417 109.175 147.645 111.11H48.0532C42.4631 111.11 37.402 109.086 33.742 105.793C31.8595 104.113 30.3661 102.116 29.3478 99.9175C28.3296 97.7186 27.8066 95.361 27.8088 92.9803C27.8088 86.5869 31.5117 80.9622 37.0732 77.7334C37.9596 77.2337 38.4743 76.3497 38.4457 75.4144C38.3028 71.4937 38.5172 65.8306 39.2035 59.5653C41.5624 59.04 44.0501 58.7581 46.6092 58.7581C55.8164 58.7581 58.1611 62.1406 60.0483 58.9375C66.9966 47.1116 80.8217 39.0525 96.7627 39.0525C124.027 39.0525 143.971 62.2944 136.78 85.9719C136.422 87.1506 137.008 88.3934 138.224 88.97C141.383 90.5075 144.042 92.7753 145.901 95.5172C147.836 98.3514 148.856 101.612 148.846 104.934Z" fill="white"/>
<path d="M237.881 274.102C236.849 273.102 236.047 271.929 235.521 270.651C234.994 269.374 234.754 268.015 234.813 266.654C234.873 265.293 235.231 263.956 235.867 262.719C236.504 261.481 237.406 260.369 238.522 259.444L275.771 228.58L238.522 197.716C237.406 196.792 236.504 195.679 235.867 194.442C235.231 193.205 234.873 191.867 234.813 190.506C234.754 189.145 234.994 187.787 235.521 186.509C236.047 185.231 236.849 184.059 237.881 183.059C238.913 182.058 240.155 181.25 241.535 180.68C242.916 180.11 244.408 179.789 245.927 179.736C247.445 179.682 248.961 179.898 250.387 180.369C251.813 180.841 253.121 181.56 254.237 182.485L300.679 220.963C305.629 225.064 305.636 232.09 300.679 236.196L254.237 274.674C253.121 275.599 251.813 276.318 250.387 276.79C248.961 277.262 247.446 277.477 245.927 277.424C244.408 277.371 242.916 277.05 241.535 276.48C240.155 275.91 238.913 275.102 237.881 274.102ZM109.894 274.676L63.4524 236.197C58.5028 232.096 58.4957 225.071 63.4524 220.964L109.894 182.486C111.01 181.561 112.318 180.842 113.744 180.37C115.17 179.899 116.686 179.683 118.205 179.736C119.724 179.79 121.216 180.111 122.596 180.681C123.977 181.251 125.218 182.06 126.25 183.06C127.282 184.06 128.084 185.232 128.611 186.51C129.137 187.788 129.377 189.146 129.318 190.508C129.259 191.869 128.9 193.206 128.264 194.443C127.628 195.68 126.726 196.793 125.609 197.717L88.3604 228.581L125.609 259.445C126.726 260.37 127.628 261.483 128.264 262.72C128.9 263.957 129.259 265.294 129.318 266.655C129.377 268.016 129.137 269.375 128.611 270.653C128.084 271.931 127.282 273.103 126.25 274.103C124.166 276.122 121.272 277.317 118.204 277.424C115.137 277.532 112.148 276.543 109.894 274.676ZM151.487 276.043C148.829 274.667 146.889 272.402 146.094 269.744C145.3 267.087 145.716 264.256 147.251 261.873L196.832 184.914C198.381 182.557 200.907 180.843 203.859 180.146C206.811 179.45 209.95 179.826 212.594 181.194C215.238 182.562 217.171 184.81 217.974 187.45C218.776 190.089 218.383 192.906 216.879 195.287L167.298 272.246C165.763 274.629 163.235 276.367 160.27 277.079C157.304 277.791 154.145 277.418 151.487 276.043Z" fill="#3CAC89"/>
<path d="M334.924 219.608C334.052 219.189 333.364 218.516 332.974 217.701C332.585 216.886 332.515 215.976 332.778 215.121C341.444 186.601 334.82 155.718 313.698 131.838H335.834C364.141 131.838 375.557 98.5052 351.387 84.4575C350.798 84.1244 350.988 83.3441 350.988 82.6638C350.988 56.7736 322.559 38.148 294.813 46.5274C294.427 46.6466 294.008 46.4787 293.801 46.1213C284.093 29.6047 265.14 19.3457 244.334 19.3457C207.769 19.3457 180.764 50.5634 190.434 82.5421C190.489 82.7144 190.476 82.8983 190.398 83.0632C190.32 83.2281 190.181 83.3639 190.004 83.4479C179.277 88.6434 173.287 99.379 175.315 110.309C159.805 119.006 146.802 131.34 137.919 146.467C136.905 148.192 134.719 149.004 132.715 148.4C124.509 145.915 115.905 144.651 107.244 144.658C62.0713 144.658 26.2962 178.403 27.6945 218.001C27.7204 218.694 27.5442 219.381 27.1831 219.994C26.822 220.607 26.2887 221.126 25.6357 221.497C10.4896 230.277 1.44684 245.152 1.44684 261.292C1.44684 287.41 25.1568 308.658 54.3009 308.658H309.828C338.97 308.658 362.68 287.41 362.68 261.292C362.683 252.746 360.104 244.358 355.217 237.019C350.331 229.68 343.318 223.664 334.924 219.608ZM192.728 87.9528C194.039 87.3206 195.072 86.3084 195.658 85.0816C196.245 83.8548 196.349 82.4861 195.954 81.1993C187.256 52.4353 211.572 24.4694 244.334 24.4694C253.476 24.4593 262.447 26.6927 270.273 30.9274C278.1 35.1621 284.483 41.2364 288.731 48.4916C290.238 51.1015 293.568 52.3161 296.644 51.3834C321.454 43.888 346.196 61.354 345.257 83.5812C345.211 84.6101 345.469 85.6315 346.003 86.543C346.538 87.4545 347.331 88.224 348.302 88.7741C367.664 100.026 358.463 126.714 335.832 126.714H308.851C275.399 93.9388 222.374 87.0982 180.694 107.485C180.397 103.538 181.373 99.5975 183.507 96.1341C185.641 92.6706 188.842 89.8305 192.728 87.9528ZM309.828 303.531H54.3009C7.4601 303.531 -10.5611 248.582 28.7424 225.799C34.1038 222.69 33.3775 217.843 33.3775 215.978C33.3775 179.478 66.5148 149.781 107.245 149.781C115.33 149.781 123.283 150.948 130.886 153.252C135.564 154.671 140.651 152.819 142.982 148.852C160.279 119.393 194.064 101.093 231.152 101.093C296.431 101.093 344.545 156.894 327.261 213.774C326.656 215.745 326.815 217.842 327.713 219.721C328.611 221.6 330.195 223.15 332.205 224.116C339.692 227.733 345.946 233.098 350.305 239.643C354.664 246.187 356.965 253.667 356.963 261.289C356.963 284.581 335.818 303.531 309.828 303.531Z" fill="#3CAC89"/>
<path d="M25.1768 125.629H128.609C152.512 125.629 160.554 96.8805 139.576 86.7164L139.54 86.6434C147.238 61.299 125.794 36.4875 96.7612 36.4875C80.2526 36.4875 65.2152 44.6312 57.462 57.7896C35.4777 51.1322 12.6899 65.8679 12.6899 86.5896C12.6899 86.8791 12.6956 87.1674 12.6499 87.5415C-6.57657 98.6833 2.19886 125.629 25.1768 125.629ZM15.7552 91.8465C16.6031 91.3611 17.295 90.6859 17.7626 89.8876C18.2302 89.0892 18.4574 88.1953 18.4215 87.2942C17.7996 69.9205 36.9531 56.985 55.6291 62.6443C58.3241 63.463 61.2435 62.4034 62.5774 60.1292C69.2841 48.7081 82.3829 41.6125 96.7612 41.6125C122.07 41.6125 140.721 63.2452 134.023 85.298C133.676 86.4279 133.767 87.6301 134.282 88.7073C134.797 89.7845 135.706 90.6728 136.858 91.2264C152.649 98.8767 146.596 120.506 128.609 120.506H25.1768C7.90474 120.504 1.26813 100.24 15.7552 91.8465ZM256.177 180.6C246.737 172.779 231.456 179.17 231.955 190.604C232.024 192.302 232.468 193.972 233.262 195.515C234.056 197.059 235.183 198.446 236.579 199.596L271.558 228.579L236.58 257.561C227.23 265.309 232.91 279.532 245.816 279.984C249.758 280.112 253.399 278.857 256.177 276.555L302.619 238.077C308.79 232.963 308.791 224.193 302.619 219.08L256.177 180.6ZM252.294 272.791C251.454 273.488 250.469 274.029 249.396 274.385C248.322 274.74 247.181 274.902 246.037 274.862C244.894 274.822 243.77 274.58 242.731 274.151C241.691 273.721 240.757 273.113 239.98 272.359C239.203 271.607 238.598 270.724 238.201 269.762C237.805 268.8 237.624 267.777 237.669 266.752C237.713 265.727 237.983 264.72 238.463 263.788C238.943 262.857 239.622 262.02 240.463 261.324C280.832 227.874 278.63 230.177 278.63 228.578C278.63 226.979 280.835 229.284 240.463 195.83C234.635 191 238.5 182.291 246.384 182.291C251.086 182.291 248.058 180.852 298.738 222.842C299.625 223.57 300.332 224.457 300.813 225.445C301.295 226.433 301.54 227.501 301.534 228.579C301.533 233.258 302.851 230.903 252.294 272.791ZM132.173 190.604C132.678 179.054 117.31 172.848 107.951 180.6L61.5094 219.078C55.3389 224.192 55.3375 232.962 61.5094 238.076L107.951 276.554C117.435 284.408 132.671 277.947 132.173 266.55C132.104 264.852 131.66 263.183 130.866 261.639C130.073 260.096 128.945 258.709 127.55 257.558L92.5708 228.576L127.548 199.593C128.945 198.444 130.072 197.057 130.866 195.514C131.66 193.971 132.104 192.302 132.173 190.604ZM86.4175 226.697C86.1281 226.937 85.8972 227.228 85.7393 227.552C85.5813 227.876 85.4998 228.226 85.4998 228.579C85.4998 228.932 85.5813 229.282 85.7393 229.606C85.8972 229.93 86.1281 230.221 86.4175 230.461C126.76 263.888 126.267 262.354 126.459 266.753C126.504 267.778 126.323 268.801 125.927 269.763C125.53 270.725 124.926 271.608 124.149 272.362C123.372 273.115 122.437 273.723 121.397 274.153C120.357 274.582 119.233 274.823 118.089 274.863C113.101 275.006 116.075 276.306 65.3939 234.314C64.5108 233.583 63.806 232.696 63.324 231.709C62.842 230.722 62.5932 229.656 62.5932 228.579C62.5932 227.502 62.842 226.436 63.324 225.449C63.806 224.462 64.5108 223.575 65.3939 222.844L111.836 184.366C117.512 179.662 126.765 183.482 126.46 190.405C126.267 194.813 126.717 193.304 86.4175 226.697ZM214.071 178.895C207.177 175.334 198.335 177.456 194.356 183.63L144.773 260.588C140.796 266.765 143.166 274.692 150.057 278.259C156.951 281.825 165.797 279.697 169.774 273.524L219.357 196.566C223.333 190.389 220.964 182.462 214.071 178.895ZM214.403 194.003L164.822 270.961C163.664 272.753 161.76 274.061 159.528 274.597C157.296 275.133 154.918 274.853 152.915 273.82C150.916 272.782 149.457 271.076 148.859 269.076C148.261 267.076 148.573 264.945 149.725 263.151L199.308 186.193C200.466 184.401 202.37 183.093 204.601 182.557C206.833 182.022 209.211 182.301 211.213 183.334C213.213 184.372 214.671 186.078 215.269 188.078C215.867 190.078 215.556 192.209 214.403 194.003Z" fill="#3CAC89"/>
</svg>
