<svg width="40" height="40" viewBox="0 0 40 40" fill="none" xmlns="http://www.w3.org/2000/svg">
<g clip-path="url(#clip0_31_141)">
<path fill-rule="evenodd" clip-rule="evenodd" d="M15 28.7503C15 28.0594 15.5591 27.5003 16.25 27.5003C16.9409 27.5003 17.5 28.0594 17.5 28.7503C17.5 29.4413 16.9409 30.0003 16.25 30.0003C15.5591 30.0003 15 29.4413 15 28.7503ZM27.2913 38.6063C26.958 38.7015 26.6138 38.7698 26.25 38.7698C24.1784 38.7698 22.5 37.0914 22.5 35.0198V30.4739C22.5 28.9041 23.5077 27.5711 24.906 27.0803C27.5909 26.1783 30 23.9127 30 21.2503V18.75C30 17.5653 29.5166 16.4621 28.75 15.5182V12.6953C28.75 11.315 27.6306 10.8423 26.25 11.6409L24.3347 12.7484C23.7213 12.5895 23.1018 12.5 22.5 12.5H17.5C16.8985 12.5 16.2787 12.5895 15.6653 12.7484L13.75 11.6409C12.3697 10.8423 11.25 11.315 11.25 12.6953V15.5182C10.4834 16.4621 10 17.5653 10 18.75V21.2503C10 23.0691 11.1319 24.7025 12.7014 25.845L12.6998 25.8474C13.0258 26.0708 13.2424 26.448 13.2424 26.8752C13.2424 27.5649 12.6818 28.1252 11.9924 28.1252C11.6393 28.1252 11.3226 27.9775 11.0955 27.742C8.98469 26.1429 7.5 23.8309 7.5 21.2503V18.75C7.5 17.3029 7.96969 15.9393 8.75 14.7363V11.015C8.75 8.25438 10.9879 7.30891 13.75 8.90594L15.8954 10.1471C16.4304 10.0562 16.9666 10 17.5 10H22.5C23.0334 10 23.5694 10.0562 24.1046 10.1471L26.25 8.90594C29.0124 7.30899 31.25 8.25438 31.25 11.015V14.7363C32.03 15.9393 32.5 17.3029 32.5 18.75V21.2503C32.5 24.9698 29.4336 28.1363 25.8179 29.4034C25.8136 29.407 25.8094 29.4168 25.8032 29.418C25.3332 29.5987 25 30.0528 25 30.5863V35.0198C25 35.7108 25.5591 36.2698 26.25 36.2698C26.3544 36.2698 26.4502 36.2406 26.5466 36.2161C32.9663 33.6258 37.5 27.3489 37.5 20C37.5 10.3348 29.6655 2.5 20 2.5C10.3348 2.5 2.5 10.3348 2.5 20C2.5 27.6102 7.36359 34.0677 14.1501 36.4762C14.1848 36.4798 14.2166 36.4945 14.2529 36.4945C14.6652 36.4945 14.9999 36.1588 14.9999 35.7474C14.9999 35.3348 14.6652 35.0004 14.2529 35.0004C14.2441 35.0004 14.2441 34.993 14.238 34.9894C10.0848 34.8783 10.0802 30.0004 8.75 30.0004C8.05906 30.0004 7.5 29.4413 7.5 28.7504C7.5 28.0595 8.05906 27.5004 8.75 27.5004H9.37406C11.8756 27.5004 11.5182 32.5004 15 32.5004C16.3803 32.5004 17.5 33.6198 17.5 35.0004V37.1879C17.5 38.3952 16.5213 39.3754 15.3122 39.3754C15.1803 39.3754 15.0562 39.3485 14.9304 39.3241C6.34398 37.0791 0 29.2911 0 20C0 8.95445 8.95445 0 20 0C31.0455 0 40 8.95445 40 20C40 28.4695 34.7272 35.6913 27.2913 38.6063Z" fill="#E7FFFB"/>
</g>
<defs>
<clipPath id="clip0_31_141">
<rect width="40" height="40" fill="white"/>
</clipPath>
</defs>
</svg>
