<svg width="40" height="40" viewBox="0 0 40 40" fill="none" xmlns="http://www.w3.org/2000/svg">
<path fill-rule="evenodd" clip-rule="evenodd" d="M36.875 37.5H30.6257C29.112 37.5 27.8505 36.4252 27.5623 34.9969C27.541 34.9969 27.5215 34.9999 27.5001 34.9999V23.6879C27.5001 22.3409 26.3807 21.2507 25.0002 21.2507C23.6195 21.2507 22.5002 22.3409 22.5002 23.6879V34.3762C22.5002 35.1385 22.2152 35.8252 21.7628 36.369C21.5144 36.745 21.0902 36.9928 20.6062 36.9928C19.8396 36.9928 19.2188 36.372 19.2188 35.6054C19.2188 35.2001 19.3952 34.8388 19.6741 34.5849C19.8762 34.3621 20.0007 34.0734 20.0007 33.7511V23.5713C20.0007 20.9089 22.2388 18.75 25.0001 18.75C27.7612 18.75 30.0006 20.9089 30.0006 23.5713V31.964C30.0006 32.0537 29.9921 32.1313 29.9866 32.2136C29.9909 32.2123 29.9963 32.2123 30.0006 32.2105V33.7511C30.0006 34.4409 30.5597 34.9999 31.2506 34.9999H36.25C36.9409 34.9999 37.5 34.4409 37.5 33.7511V22.5008C37.5 22.4068 37.489 22.317 37.4695 22.2291C37.1484 16.8005 32.8138 12.4992 27.5001 12.4992C25.2943 12.4992 23.2631 13.2475 21.6127 14.5037C21.6066 14.5006 21.5999 14.5019 21.5871 14.5116C21.4143 14.651 21.1988 14.7269 20.9768 14.7265C20.4366 14.7265 20.0009 14.2888 20.0009 13.7493C20.0009 13.6822 19.9969 13.6473 19.9898 13.6376C19.9322 13.0009 19.4023 12.4992 18.7509 12.4992H15.0003C13.62 12.4992 12.5001 13.6192 12.5001 14.9999V33.7511C12.5001 33.8634 12.5199 33.9715 12.5477 34.0747C12.5158 34.172 12.4998 34.2738 12.5001 34.3762C12.5001 36.1016 11.1015 37.5 9.37477 37.5H3.12523C1.40016 37.5 0 36.1016 0 34.3762V13.1242C0 11.3988 1.40016 10.0004 3.12523 10.0004H6.25055C8.32055 10.0004 9.99961 8.32125 9.99961 6.24961C9.99961 4.17805 8.32055 2.49891 6.25055 2.49891C4.1793 2.49891 2.50031 4.17805 2.50031 6.24961C2.50031 6.94055 1.94125 7.49961 1.25 7.49961C0.560625 7.49961 0 6.94055 0 6.24961C0 2.79734 2.79875 0 6.25055 0C9.70266 0 12.4999 2.79734 12.4999 6.24961C12.4999 6.56641 12.4691 6.87461 12.423 7.17922C12.413 7.23781 12.4075 7.2982 12.3962 7.3568C12.3416 7.66078 12.2674 7.95984 12.1691 8.24672C12.1652 8.26078 12.1581 8.27359 12.1539 8.28758C11.9411 8.90195 11.6337 9.47938 11.243 9.99906C10.1034 11.514 8.29406 12.4991 6.25063 12.4991H3.75023C3.0593 12.4991 2.50023 13.0601 2.50023 13.7491V33.7509C2.50023 34.4407 3.0593 34.9998 3.75023 34.9998H10.0627C10.021 34.7945 9.99983 34.5855 9.99953 34.376V14.9999C9.99953 12.2386 12.2392 10.0004 15.0001 10.0004H19.3756C20.1477 10.0004 20.8496 10.2848 21.3941 10.7517C21.4008 10.756 21.4075 10.7487 21.4148 10.7541C21.6405 10.9486 21.9287 11.0552 22.2266 11.0545C22.3976 11.0545 22.5599 11.0209 22.707 10.9586C22.7515 10.9391 22.7784 10.9421 22.804 10.9452C24.2554 10.3507 25.8337 10.0003 27.4999 10.0003C33.9795 10.0003 39.3065 14.9309 39.937 21.2434C39.9793 21.4515 40.0004 21.6633 39.9998 21.8757V34.3762C40 36.1016 38.6017 37.5 36.875 37.5ZM16.2505 34.9999C16.9398 34.9999 17.5005 35.5602 17.5005 36.2499C17.5005 36.9409 16.9399 37.5 16.2505 37.5C15.5595 37.5 15.0002 36.9409 15.0002 36.2499C15.0002 35.5602 15.5596 34.9999 16.2505 34.9999Z" fill="#E7FFFB"/>
</svg>
