<svg width="460" height="317" viewBox="0 0 460 317" fill="none" xmlns="http://www.w3.org/2000/svg">
<g clip-path="url(#clip0_27_196)">
<path d="M326.976 303.334V217.617H420.966V303.334H326.976Z" fill="#E7FFFB"/>
<path d="M197.048 110.521L205.231 119.989L202.577 123.379H185.99L197.048 110.521Z" fill="#CCD1D9"/>
<path d="M205.231 119.989L219.163 101.95L235.75 123.379H202.577L205.231 119.989Z" fill="#E7FFFB"/>
<path d="M185.99 91.2351C190.546 91.2351 194.284 94.1324 194.284 97.6639C194.284 101.195 190.546 104.093 185.99 104.093C181.435 104.093 177.697 101.195 177.697 97.6639C177.697 94.1324 181.435 91.2351 185.99 91.2351Z" fill="#FFCE54"/>
<path d="M185.99 101.95C189.031 101.95 191.519 100.017 191.519 97.664C191.519 95.3025 189.031 93.3781 185.99 93.3781C182.95 93.3781 180.462 95.3025 180.462 97.664C180.462 100.017 182.95 101.95 185.99 101.95ZM197.048 110.522L185.99 123.379H169.404V84.8064H241.279V123.379H235.75L219.163 101.95L205.231 119.989L197.048 110.522Z" fill="#3CAC89"/>
<path d="M169.404 50.5193H324.212V76.2345H169.404V50.5193Z" fill="#1991D0"/>
<path d="M158.346 41.9478H335.269V131.951H158.346V41.9478ZM241.279 84.8064H169.404V123.379H241.279V84.8064ZM324.212 50.5195H169.404V76.2347H324.212V50.5195Z" fill="#E7FFFB"/>
<path d="M163.875 33.376H329.74C332.781 33.376 335.269 35.3003 335.269 37.6618V41.9477H158.346V37.6618C158.346 35.3003 160.834 33.376 163.875 33.376Z" fill="#CCD1D9"/>
<path d="M177.935 39.8475C177.199 39.8487 176.492 39.6239 175.969 39.2224C175.446 38.8209 175.149 38.2752 175.143 37.7046C175.143 36.526 176.354 35.5617 177.874 35.5617H177.935C178.668 35.5617 179.371 35.7874 179.89 36.1893C180.408 36.5912 180.699 37.1362 180.699 37.7046C180.699 38.2729 180.408 38.818 179.89 39.2199C179.371 39.6217 178.668 39.8475 177.935 39.8475ZM166.877 39.8475C166.141 39.8487 165.434 39.6239 164.911 39.2224C164.388 38.8209 164.091 38.2752 164.085 37.7046C164.085 36.526 165.296 35.5617 166.816 35.5617H166.877C167.61 35.5617 168.313 35.7874 168.832 36.1893C169.35 36.5912 169.642 37.1362 169.642 37.7046C169.642 38.2729 169.35 38.818 168.832 39.2199C168.313 39.6217 167.61 39.8475 166.877 39.8475ZM188.932 39.8047C188.196 39.8047 187.49 39.5796 186.967 39.1783C186.444 38.7771 186.147 38.232 186.14 37.6617C186.14 36.4745 187.35 35.5188 188.871 35.5188H188.932C189.665 35.5188 190.368 35.7446 190.886 36.1464C191.405 36.5483 191.696 37.0934 191.696 37.6617C191.696 38.2301 191.405 38.7751 190.886 39.177C190.368 39.5789 189.665 39.8047 188.932 39.8047Z" fill="#E7FFFB"/>
<path d="M296.556 65.52H197.059C196.326 65.52 195.623 65.2942 195.104 64.8923C194.586 64.4905 194.295 63.9454 194.295 63.3771C194.295 62.8087 194.586 62.2637 195.104 61.8618C195.623 61.4599 196.326 61.2341 197.059 61.2341H296.556C297.289 61.2341 297.993 61.4599 298.511 61.8618C299.029 62.2637 299.321 62.8087 299.321 63.3771C299.321 63.9454 299.029 64.4905 298.511 64.8923C297.993 65.2942 297.289 65.52 296.556 65.52Z" fill="#1991D0"/>
<path d="M321.447 93.3781H255.107C254.373 93.3781 253.67 93.1524 253.152 92.7505C252.633 92.3486 252.342 91.8036 252.342 91.2352C252.342 90.6669 252.633 90.1218 253.152 89.7199C253.67 89.3181 254.373 89.0923 255.107 89.0923H321.447C322.18 89.0923 322.883 89.3181 323.402 89.7199C323.92 90.1218 324.212 90.6669 324.212 91.2352C324.212 91.8036 323.92 92.3486 323.402 92.7505C322.883 93.1524 322.18 93.3781 321.447 93.3781ZM321.447 101.95H255.107C254.373 101.95 253.67 101.724 253.152 101.322C252.633 100.92 252.342 100.375 252.342 99.807C252.342 99.2386 252.633 98.6935 253.152 98.2917C253.67 97.8898 254.373 97.664 255.107 97.664H321.447C322.18 97.664 322.883 97.8898 323.402 98.2917C323.92 98.6935 324.212 99.2386 324.212 99.807C324.212 100.375 323.92 100.92 323.402 101.322C322.883 101.724 322.18 101.95 321.447 101.95ZM321.447 110.522H255.107C254.373 110.522 253.67 110.296 253.152 109.894C252.633 109.492 252.342 108.947 252.342 108.379C252.342 107.81 252.633 107.265 253.152 106.863C253.67 106.462 254.373 106.236 255.107 106.236H321.447C322.18 106.236 322.883 106.462 323.402 106.863C323.92 107.265 324.212 107.81 324.212 108.379C324.212 108.947 323.92 109.492 323.402 109.894C322.883 110.296 322.18 110.522 321.447 110.522ZM285.51 119.093H255.107C254.373 119.093 253.67 118.868 253.152 118.466C252.633 118.064 252.342 117.519 252.342 116.95C252.342 116.382 252.633 115.837 253.152 115.435C253.67 115.033 254.373 114.807 255.107 114.807H285.51C286.243 114.807 286.946 115.033 287.464 115.435C287.983 115.837 288.274 116.382 288.274 116.95C288.274 117.519 287.983 118.064 287.464 118.466C286.946 118.868 286.243 119.093 285.51 119.093ZM166.639 217.617H72.649V213.331C72.649 210.978 75.137 209.045 78.1779 209.045H161.111C164.151 209.045 166.639 210.978 166.639 213.331V217.617Z" fill="#CCD1D9"/>
<path d="M83.7067 226.188H155.582V243.332H83.7067V226.188Z" fill="#1991D0"/>
<path d="M100.293 273.333V251.904H83.7067V273.333H100.293ZM127.938 273.333V251.904H111.351V273.333H127.938ZM155.582 243.332V226.188H83.7067V243.332H155.582ZM155.582 273.333V251.904H138.995V273.333H155.582ZM166.639 217.617V303.334H72.649V217.617H166.639Z" fill="#E7FFFB"/>
<path d="M210.87 277.619H241.279V294.762H210.87V277.619Z" fill="#1991D0"/>
<path d="M282.745 269.047V251.904H252.337V269.047H282.745ZM210.87 243.332H241.279V226.188H210.87V243.332ZM210.87 294.762H241.279V277.619H210.87V294.762ZM199.812 217.617H293.803V303.334H199.812V217.617Z" fill="#E7FFFB"/>
<path d="M252.337 251.904H282.745V269.047H252.337V251.904Z" fill="#3CAC89"/>
<path d="M210.87 226.188H241.279V243.332H210.87V226.188ZM338.034 239.054H409.909V264.77H338.034V239.054Z" fill="#1991D0"/>
<path d="M326.976 213.331C326.976 210.978 329.464 209.045 332.505 209.045H415.438C418.478 209.045 420.966 210.978 420.966 213.331V217.617H326.976V213.331ZM205.341 209.045H288.274C291.315 209.045 293.803 210.978 293.803 213.331V217.617H199.812V213.331C199.812 210.978 202.3 209.045 205.341 209.045Z" fill="#CCD1D9"/>
<path d="M208.139 215.474C207.403 215.475 206.696 215.25 206.173 214.849C205.65 214.447 205.353 213.901 205.347 213.331C205.347 212.152 206.558 211.188 208.078 211.188H208.139C208.872 211.188 209.575 211.414 210.094 211.815C210.612 212.217 210.903 212.762 210.903 213.331C210.903 213.899 210.612 214.444 210.094 214.846C209.575 215.248 208.872 215.474 208.139 215.474ZM219.197 215.474C218.46 215.475 217.754 215.25 217.23 214.849C216.707 214.447 216.41 213.901 216.404 213.331C216.404 212.152 217.615 211.188 219.136 211.188H219.197C219.93 211.188 220.633 211.414 221.151 211.815C221.67 212.217 221.961 212.762 221.961 213.331C221.961 213.899 221.67 214.444 221.151 214.846C220.633 215.248 219.93 215.474 219.197 215.474ZM230.254 215.474C229.518 215.475 228.811 215.25 228.288 214.849C227.765 214.447 227.468 213.901 227.462 213.331C227.462 212.152 228.673 211.188 230.193 211.188H230.254C230.987 211.188 231.691 211.414 232.209 211.815C232.727 212.217 233.019 212.762 233.019 213.331C233.019 213.899 232.727 214.444 232.209 214.846C231.691 215.248 230.987 215.474 230.254 215.474ZM80.9755 215.474C80.2393 215.475 79.5324 215.25 79.0093 214.849C78.4862 214.447 78.1893 213.901 78.1834 213.331C78.1834 212.152 79.3942 211.188 80.9147 211.188H80.9755C81.7086 211.188 82.4118 211.414 82.9302 211.815C83.4486 212.217 83.7399 212.762 83.7399 213.331C83.7399 213.899 83.4486 214.444 82.9302 214.846C82.4118 215.248 81.7086 215.474 80.9755 215.474ZM92.0332 215.474C91.297 215.475 90.5901 215.25 90.067 214.849C89.5439 214.447 89.2469 213.901 89.2411 213.331C89.2411 212.152 90.4519 211.188 91.9723 211.188H92.0332C92.7663 211.188 93.4695 211.414 93.9879 211.815C94.5063 212.217 94.7976 212.762 94.7976 213.331C94.7976 213.899 94.5063 214.444 93.9879 214.846C93.4695 215.248 92.7663 215.474 92.0332 215.474ZM103.091 215.474C102.355 215.475 101.648 215.25 101.125 214.849C100.602 214.447 100.305 213.901 100.299 213.331C100.299 212.152 101.51 211.188 103.03 211.188H103.091C103.824 211.188 104.527 211.414 105.046 211.815C105.564 212.217 105.855 212.762 105.855 213.331C105.855 213.899 105.564 214.444 105.046 214.846C104.527 215.248 103.824 215.474 103.091 215.474ZM335.302 215.474C334.566 215.475 333.859 215.25 333.336 214.849C332.813 214.447 332.516 213.901 332.51 213.331C332.51 212.152 333.721 211.188 335.241 211.188H335.302C336.035 211.188 336.739 211.414 337.257 211.815C337.775 212.217 338.067 212.762 338.067 213.331C338.067 213.899 337.775 214.444 337.257 214.846C336.739 215.248 336.035 215.474 335.302 215.474ZM346.36 215.474C345.624 215.475 344.917 215.25 344.394 214.849C343.871 214.447 343.574 213.901 343.568 213.331C343.568 212.152 344.779 211.188 346.299 211.188H346.36C347.093 211.188 347.796 211.414 348.315 211.815C348.833 212.217 349.124 212.762 349.124 213.331C349.124 213.899 348.833 214.444 348.315 214.846C347.796 215.248 347.093 215.474 346.36 215.474ZM357.418 215.474C356.681 215.475 355.975 215.25 355.451 214.849C354.928 214.447 354.631 213.901 354.626 213.331C354.626 212.152 355.836 211.188 357.357 211.188H357.418C358.151 211.188 358.854 211.414 359.372 211.815C359.891 212.217 360.182 212.762 360.182 213.331C360.182 213.899 359.891 214.444 359.372 214.846C358.854 215.248 358.151 215.474 357.418 215.474Z" fill="#E7FFFB"/>
<path d="M246.808 198.082C246.075 198.082 245.371 197.856 244.853 197.454C244.335 197.052 244.043 196.507 244.043 195.939V144.508C244.043 143.94 244.335 143.395 244.853 142.993C245.371 142.591 246.075 142.365 246.808 142.365C247.541 142.365 248.244 142.591 248.762 142.993C249.281 143.395 249.572 143.94 249.572 144.508V195.939C249.572 196.507 249.281 197.052 248.762 197.454C248.244 197.856 247.541 198.082 246.808 198.082Z" fill="#CCD1D9"/>
<path d="M246.808 198.082C246.261 198.082 245.727 197.956 245.273 197.721C244.819 197.486 244.465 197.151 244.255 196.76C244.046 196.369 243.99 195.938 244.096 195.523C244.202 195.107 244.465 194.726 244.851 194.426L250.379 190.14C250.901 189.75 251.599 189.534 252.324 189.538C253.049 189.543 253.742 189.769 254.255 190.166C254.767 190.563 255.058 191.101 255.064 191.663C255.071 192.225 254.792 192.766 254.288 193.17L248.759 197.456C248.503 197.655 248.199 197.812 247.864 197.92C247.529 198.027 247.17 198.082 246.808 198.082Z" fill="#E7FFFB"/>
<path d="M246.808 198.082C246.074 198.082 245.371 197.857 244.85 197.456L239.322 193.17C238.818 192.766 238.539 192.225 238.546 191.663C238.552 191.101 238.843 190.563 239.355 190.166C239.868 189.769 240.561 189.543 241.286 189.538C242.011 189.534 242.709 189.75 243.231 190.14L248.759 194.426C249.145 194.725 249.407 195.107 249.513 195.522C249.619 195.937 249.565 196.367 249.356 196.758C249.147 197.149 248.794 197.483 248.34 197.719C247.887 197.954 247.354 198.081 246.808 198.082Z" fill="#E7FFFB"/>
<path d="M119.644 198.082C118.911 198.082 118.208 197.856 117.69 197.454C117.171 197.052 116.88 196.507 116.88 195.939V166.191C116.88 165.622 117.171 165.077 117.69 164.675C118.208 164.273 118.911 164.048 119.644 164.048C120.377 164.048 121.081 164.273 121.599 164.675C122.117 165.077 122.409 165.622 122.409 166.191V195.939C122.409 196.507 122.117 197.052 121.599 197.454C121.081 197.856 120.377 198.082 119.644 198.082Z" fill="#CCD1D9"/>
<path d="M119.644 198.082C119.098 198.082 118.564 197.956 118.11 197.721C117.655 197.486 117.301 197.151 117.092 196.76C116.882 196.369 116.827 195.938 116.933 195.523C117.039 195.107 117.301 194.726 117.687 194.426L123.216 190.14C123.737 189.75 124.436 189.534 125.16 189.538C125.885 189.543 126.579 189.769 127.091 190.166C127.604 190.563 127.894 191.101 127.901 191.663C127.907 192.225 127.628 192.766 127.125 193.17L121.596 197.456C121.34 197.655 121.035 197.812 120.701 197.92C120.366 198.027 120.007 198.082 119.644 198.082Z" fill="#E7FFFB"/>
<path d="M119.644 198.082C118.911 198.082 118.207 197.857 117.687 197.456L112.158 193.17C111.655 192.766 111.376 192.225 111.382 191.663C111.389 191.101 111.679 190.563 112.192 190.166C112.704 189.769 113.398 189.543 114.123 189.538C114.847 189.534 115.546 189.75 116.067 190.14L121.596 194.426C121.981 194.725 122.244 195.107 122.35 195.522C122.456 195.937 122.401 196.367 122.192 196.758C121.984 197.149 121.63 197.483 121.177 197.719C120.723 197.954 120.19 198.081 119.644 198.082Z" fill="#E7FFFB"/>
<path d="M279.981 232.626H255.106C254.373 232.626 253.67 232.4 253.152 231.998C252.633 231.596 252.342 231.051 252.342 230.483C252.342 229.914 252.633 229.369 253.152 228.968C253.67 228.566 254.373 228.34 255.106 228.34H279.981C280.714 228.34 281.417 228.566 281.935 228.968C282.454 229.369 282.745 229.914 282.745 230.483C282.745 231.051 282.454 231.596 281.935 231.998C281.417 232.4 280.714 232.626 279.981 232.626ZM279.981 241.197H255.106C254.373 241.197 253.67 240.972 253.152 240.57C252.633 240.168 252.342 239.623 252.342 239.055C252.342 238.486 252.633 237.941 253.152 237.539C253.67 237.137 254.373 236.912 255.106 236.912H279.981C280.714 236.912 281.417 237.137 281.935 237.539C282.454 237.941 282.745 238.486 282.745 239.055C282.745 239.623 282.454 240.168 281.935 240.57C281.417 240.972 280.714 241.197 279.981 241.197Z" fill="#CCD1D9"/>
<path d="M279.981 284.048H255.106C254.373 284.048 253.67 283.822 253.152 283.42C252.633 283.018 252.342 282.473 252.342 281.905C252.342 281.336 252.633 280.791 253.152 280.389C253.67 279.987 254.373 279.762 255.106 279.762H279.981C280.714 279.762 281.417 279.987 281.935 280.389C282.454 280.791 282.745 281.336 282.745 281.905C282.745 282.473 282.454 283.018 281.935 283.42C281.417 283.822 280.714 284.048 279.981 284.048ZM279.981 292.619H255.106C254.373 292.619 253.67 292.394 253.152 291.992C252.633 291.59 252.342 291.045 252.342 290.476C252.342 289.908 252.633 289.363 253.152 288.961C253.67 288.559 254.373 288.333 255.106 288.333H279.981C280.714 288.333 281.417 288.559 281.935 288.961C282.454 289.363 282.745 289.908 282.745 290.476C282.745 291.045 282.454 291.59 281.935 291.992C281.417 292.394 280.714 292.619 279.981 292.619Z" fill="#CCD1D9"/>
<path d="M238.509 258.332H213.635C212.901 258.332 212.198 258.106 211.68 257.705C211.161 257.303 210.87 256.758 210.87 256.189C210.87 255.621 211.161 255.076 211.68 254.674C212.198 254.272 212.901 254.046 213.635 254.046H238.509C239.242 254.046 239.945 254.272 240.464 254.674C240.982 255.076 241.273 255.621 241.273 256.189C241.273 256.758 240.982 257.303 240.464 257.705C239.945 258.106 239.242 258.332 238.509 258.332ZM238.509 266.904H213.635C212.901 266.904 212.198 266.678 211.68 266.276C211.161 265.874 210.87 265.329 210.87 264.761C210.87 264.193 211.161 263.648 211.68 263.246C212.198 262.844 212.901 262.618 213.635 262.618H238.509C239.242 262.618 239.945 262.844 240.464 263.246C240.982 263.648 241.273 264.193 241.273 264.761C241.273 265.329 240.982 265.874 240.464 266.276C239.945 266.678 239.242 266.904 238.509 266.904Z" fill="#CCD1D9"/>
<path d="M152.812 288.333H86.4711C85.738 288.333 85.0348 288.108 84.5164 287.706C83.998 287.304 83.7067 286.759 83.7067 286.191C83.7067 285.622 83.998 285.077 84.5164 284.675C85.0348 284.273 85.738 284.048 86.4711 284.048H152.812C153.545 284.048 154.248 284.273 154.767 284.675C155.285 285.077 155.576 285.622 155.576 286.191C155.576 286.759 155.285 287.304 154.767 287.706C154.248 288.108 153.545 288.333 152.812 288.333Z" fill="#CCD1D9"/>
<path d="M138.99 296.905H100.299C99.5656 296.905 98.8625 296.679 98.344 296.277C97.8256 295.875 97.5344 295.33 97.5344 294.762C97.5344 294.194 97.8256 293.649 98.344 293.247C98.8625 292.845 99.5656 292.619 100.299 292.619H138.99C139.723 292.619 140.426 292.845 140.944 293.247C141.463 293.649 141.754 294.194 141.754 294.762C141.754 295.33 141.463 295.875 140.944 296.277C140.426 296.679 139.723 296.905 138.99 296.905Z" fill="#CCD1D9"/>
<path d="M407.155 230.474H340.793C340.06 230.474 339.356 230.248 338.838 229.846C338.32 229.445 338.028 228.9 338.028 228.331C338.028 227.763 338.32 227.218 338.838 226.816C339.356 226.414 340.06 226.188 340.793 226.188H407.155C407.889 226.188 408.592 226.414 409.11 226.816C409.629 227.218 409.92 227.763 409.92 228.331C409.92 228.9 409.629 229.445 409.11 229.846C408.592 230.248 407.889 230.474 407.155 230.474Z" fill="#CCD1D9"/>
<path d="M407.144 277.627H340.803C340.07 277.627 339.367 277.402 338.849 277C338.33 276.598 338.039 276.053 338.039 275.484C338.039 274.916 338.33 274.371 338.849 273.969C339.367 273.567 340.07 273.342 340.803 273.342H407.144C407.877 273.342 408.58 273.567 409.099 273.969C409.617 274.371 409.909 274.916 409.909 275.484C409.909 276.053 409.617 276.598 409.099 277C408.58 277.402 407.877 277.627 407.144 277.627ZM407.144 286.199H340.803C340.07 286.199 339.367 285.973 338.849 285.571C338.33 285.17 338.039 284.625 338.039 284.056C338.039 283.488 338.33 282.943 338.849 282.541C339.367 282.139 340.07 281.913 340.803 281.913H407.144C407.877 281.913 408.58 282.139 409.099 282.541C409.617 282.943 409.909 283.488 409.909 284.056C409.909 284.625 409.617 285.17 409.099 285.571C408.58 285.973 407.877 286.199 407.144 286.199ZM373.971 294.771H340.803C340.07 294.771 339.367 294.545 338.849 294.143C338.33 293.741 338.039 293.196 338.039 292.628C338.039 292.06 338.33 291.515 338.849 291.113C339.367 290.711 340.07 290.485 340.803 290.485H373.971C374.704 290.485 375.407 290.711 375.926 291.113C376.444 291.515 376.735 292.06 376.735 292.628C376.735 293.196 376.444 293.741 375.926 294.143C375.407 294.545 374.704 294.771 373.971 294.771Z" fill="#CCD1D9"/>
<path d="M232.986 168.329H119.644C118.911 168.329 118.208 168.103 117.69 167.701C117.171 167.3 116.88 166.754 116.88 166.186C116.88 165.618 117.171 165.073 117.69 164.671C118.208 164.269 118.911 164.043 119.644 164.043H232.986C233.719 164.043 234.422 164.269 234.94 164.671C235.459 165.073 235.75 165.618 235.75 166.186C235.75 166.754 235.459 167.3 234.94 167.701C234.422 168.103 233.719 168.329 232.986 168.329Z" fill="#CCD1D9"/>
<path d="M373.971 198.082C373.238 198.082 372.535 197.856 372.016 197.454C371.498 197.052 371.207 196.507 371.207 195.939V166.191C371.207 165.622 371.498 165.077 372.016 164.675C372.535 164.273 373.238 164.048 373.971 164.048C374.704 164.048 375.407 164.273 375.926 164.675C376.444 165.077 376.736 165.622 376.736 166.191V195.939C376.736 196.507 376.444 197.052 375.926 197.454C375.407 197.856 374.704 198.082 373.971 198.082Z" fill="#CCD1D9"/>
<path d="M373.971 198.082C373.238 198.082 372.534 197.857 372.014 197.456L366.485 193.17C365.981 192.766 365.703 192.225 365.709 191.663C365.715 191.101 366.006 190.563 366.519 190.166C367.031 189.769 367.725 189.543 368.449 189.538C369.174 189.534 369.873 189.75 370.394 190.14L375.923 194.426C376.308 194.725 376.57 195.107 376.677 195.522C376.783 195.937 376.728 196.367 376.519 196.758C376.311 197.149 375.957 197.483 375.504 197.719C375.05 197.954 374.517 198.081 373.971 198.082Z" fill="#E7FFFB"/>
<path d="M373.971 198.082C373.425 198.082 372.891 197.956 372.437 197.721C371.982 197.486 371.628 197.151 371.419 196.76C371.209 196.369 371.154 195.938 371.26 195.523C371.366 195.107 371.628 194.726 372.014 194.426L377.543 190.14C378.064 189.75 378.763 189.534 379.487 189.538C380.212 189.543 380.906 189.769 381.418 190.166C381.931 190.563 382.221 191.101 382.228 191.663C382.234 192.225 381.955 192.766 381.452 193.17L375.923 197.456C375.667 197.655 375.362 197.812 375.028 197.92C374.693 198.027 374.334 198.082 373.971 198.082Z" fill="#E7FFFB"/>
<path d="M373.971 168.329H260.63C259.897 168.329 259.193 168.103 258.675 167.701C258.157 167.3 257.865 166.754 257.865 166.186C257.865 165.618 258.157 165.073 258.675 164.671C259.193 164.269 259.897 164.043 260.63 164.043H373.971C374.704 164.043 375.407 164.269 375.926 164.671C376.444 165.073 376.736 165.618 376.736 166.186C376.736 166.754 376.444 167.3 375.926 167.701C375.407 168.103 374.704 168.329 373.971 168.329Z" fill="#CCD1D9"/>
<path d="M83.7067 251.904H100.293V275.484H83.7067V251.904ZM111.351 251.904H127.937V275.484H111.351V251.904ZM138.995 251.904H155.582V275.484H138.995V251.904Z" fill="#3CAC89"/>
</g>
<defs>
<clipPath id="clip0_27_196">
<rect width="460" height="317" fill="white"/>
</clipPath>
</defs>
</svg>
