<svg width="420" height="344" viewBox="0 0 420 344" fill="none" xmlns="http://www.w3.org/2000/svg">
<path d="M337.541 138.037C339.205 132.953 340.192 127.645 340.192 122.123C340.192 87.9229 306.344 60.2 264.583 60.2C235.402 60.2 210.151 73.7639 197.534 93.5955C191.735 91.9887 185.655 91.1661 179.533 91.1599C148.218 91.1599 122.837 111.955 122.837 137.6C96.7512 137.6 75.5916 154.931 75.5916 176.307C75.5916 195.622 92.8872 211.587 115.487 214.491V172.003C115.487 169.745 116.03 167.508 117.084 165.421C118.139 163.334 119.686 161.438 121.635 159.84C123.585 158.243 125.9 156.975 128.447 156.111C130.995 155.246 133.725 154.8 136.483 154.8H325.483C328.242 154.799 330.975 155.243 333.524 156.107C336.074 156.971 338.391 158.238 340.342 159.835C342.294 161.433 343.841 163.33 344.897 165.418C345.953 167.506 346.496 169.743 346.496 172.003V212.747C364.841 207.425 377.996 193.142 377.996 176.293C378 156.823 360.415 140.751 337.541 138.037Z" stroke="#1991D0" stroke-width="1.25" stroke-miterlimit="10" stroke-linecap="round" stroke-linejoin="round"/>
<path d="M325.487 154.8C328.247 154.799 330.979 155.243 333.529 156.107C336.078 156.971 338.395 158.238 340.346 159.835C342.298 161.433 343.846 163.33 344.901 165.418C345.957 167.506 346.501 169.744 346.5 172.003V283.8H115.492V172.003C115.491 169.745 116.034 167.508 117.089 165.421C118.143 163.334 119.69 161.438 121.639 159.84C123.589 158.243 125.904 156.975 128.451 156.111C130.999 155.246 133.73 154.801 136.487 154.8H325.487Z" fill="#68BFE6" stroke="#1991D0" stroke-width="1.25" stroke-miterlimit="10" stroke-linecap="round" stroke-linejoin="round"/>
<path d="M115.492 214.491C92.8914 211.587 75.5958 195.626 75.5958 176.307C75.5958 154.931 96.7554 137.6 122.842 137.6C122.842 115.77 141.25 97.5136 166.034 92.5393V51.335C166.033 46.8432 163.854 42.5357 159.976 39.3599C156.097 36.184 150.838 34.3999 145.354 34.3999H62.6598C59.9455 34.4004 57.2578 34.8388 54.7504 35.6902C52.243 36.5416 49.965 37.7893 48.0464 39.3619C46.1279 40.9346 44.6064 42.8014 43.5689 44.8558C42.5315 46.9102 41.9983 49.1118 42 51.335V198.065C41.9983 200.288 42.5315 202.49 43.5689 204.544C44.6064 206.598 46.1279 208.465 48.0464 210.038C49.965 211.611 52.243 212.858 54.7504 213.71C57.2578 214.561 59.9455 214.999 62.6598 215H115.492V214.491Z" fill="#68BFE6" stroke="#1991D0" stroke-width="1.25" stroke-miterlimit="10" stroke-linecap="round" stroke-linejoin="round"/>
<path d="M81.963 48.5179C81.963 49.1164 81.6727 49.6904 81.156 50.1136C80.6393 50.5368 79.9385 50.7745 79.2078 50.7745C78.4771 50.7745 77.7763 50.5368 77.2596 50.1136C76.7429 49.6904 76.4526 49.1164 76.4526 48.5179C76.4526 47.9194 76.7429 47.3454 77.2596 46.9222C77.7763 46.499 78.4771 46.2612 79.2078 46.2612C79.9385 46.2612 80.6393 46.499 81.156 46.9222C81.6727 47.3454 81.963 47.9194 81.963 48.5179Z" fill="#59C6A4" stroke="#1991D0" stroke-width="0.75" stroke-miterlimit="10" stroke-linecap="round" stroke-linejoin="round"/>
<path d="M90.2286 48.5178H117.793" stroke="#1991D0" stroke-width="0.75" stroke-miterlimit="10" stroke-linecap="round" stroke-linejoin="round"/>
<path d="M75.5958 176.307C75.5958 154.931 96.7554 137.6 122.842 137.6C122.842 118.938 136.315 102.894 155.686 95.5185V65.446C155.682 64.6996 155.319 63.9846 154.674 63.4569C154.03 62.9291 153.157 62.6314 152.246 62.6287H55.7718C53.8776 62.6287 52.3278 63.9015 52.3278 65.446V183.964C52.3278 185.516 53.8776 186.782 55.7718 186.782H77.3892C76.2086 183.374 75.6051 179.849 75.5958 176.307Z" fill="#F9FDFF" stroke="#1991D0" stroke-width="0.75" stroke-miterlimit="10" stroke-linecap="round" stroke-linejoin="round"/>
<path d="M257.246 180.607H330.742V283.8H257.246V180.607ZM131.233 249.403H257.233V283.8H131.233V249.403ZM131.233 180.607H257.233V249.403H131.233V180.607Z" fill="#F9FDFF"/>
<path d="M131.233 249.403H257.233M131.233 249.403V283.8H257.233V249.403M131.233 249.403V180.607H257.233V249.403M257.246 180.607H330.742V283.8H257.246V180.607Z" stroke="#1991D0" stroke-width="0.75" stroke-miterlimit="10" stroke-linecap="round" stroke-linejoin="round"/>
<path d="M320.25 172.003H325.487C326.178 172.003 326.861 172.114 327.499 172.33C328.136 172.546 328.716 172.863 329.204 173.263C329.692 173.663 330.079 174.137 330.343 174.659C330.607 175.182 330.742 175.742 330.742 176.307V180.6H320.25V172.003Z" fill="#59C6A4" stroke="#1991D0" stroke-width="0.75" stroke-miterlimit="10" stroke-linecap="round" stroke-linejoin="round"/>
<path d="M131.25 180.6V176.3C131.25 173.926 133.594 172.003 136.487 172.003H299.258V180.6H131.25Z" fill="#F9FDFF" stroke="#1991D0" stroke-width="0.75" stroke-miterlimit="10" stroke-linecap="round" stroke-linejoin="round"/>
<path d="M238.871 165.983C239.567 165.982 240.235 165.756 240.729 165.353C241.222 164.95 241.501 164.404 241.504 163.833C241.502 163.262 241.224 162.715 240.73 162.311C240.237 161.908 239.568 161.681 238.871 161.68H223.129C222.775 161.668 222.422 161.715 222.091 161.818C221.76 161.921 221.458 162.078 221.203 162.279C220.947 162.48 220.744 162.721 220.605 162.988C220.466 163.255 220.395 163.542 220.395 163.832C220.395 164.122 220.466 164.409 220.605 164.676C220.744 164.942 220.947 165.184 221.203 165.385C221.458 165.585 221.76 165.742 222.091 165.845C222.422 165.948 222.775 165.995 223.129 165.983H238.871ZM309.746 172.003H320.25V180.6H309.746V172.003ZM299.258 172.003H309.746V180.6H299.258V172.003ZM315 189.2C317.881 189.2 320.25 191.137 320.25 193.5V223.603C320.25 225.97 317.881 227.903 315 227.903H272.992C271.601 227.899 270.268 227.444 269.284 226.639C268.3 225.834 267.744 224.743 267.737 223.603V193.5C267.737 191.137 270.11 189.2 272.992 189.2H315ZM188.996 283.8V262.303C188.996 259.937 186.627 258.007 183.746 258.007L146.992 258C144.102 258 141.737 259.937 141.737 262.297V283.8H188.996Z" fill="#59C6A4"/>
<path d="M309.746 172.003H320.25V180.6H309.746M309.746 172.003V180.6M309.746 172.003H299.258V180.6H309.746M238.871 165.983C239.567 165.982 240.235 165.756 240.729 165.353C241.222 164.95 241.501 164.404 241.504 163.833C241.502 163.262 241.224 162.715 240.73 162.311C240.237 161.908 239.568 161.681 238.871 161.68H223.129C222.775 161.668 222.422 161.715 222.091 161.818C221.76 161.921 221.458 162.078 221.203 162.279C220.947 162.48 220.744 162.721 220.605 162.988C220.466 163.255 220.395 163.542 220.395 163.832C220.395 164.122 220.466 164.409 220.605 164.676C220.744 164.942 220.947 165.184 221.203 165.385C221.458 165.585 221.76 165.742 222.091 165.845C222.422 165.948 222.775 165.995 223.129 165.983H238.871ZM315 189.2C317.881 189.2 320.25 191.137 320.25 193.5V223.603C320.25 225.97 317.881 227.903 315 227.903H272.992C271.601 227.899 270.268 227.444 269.284 226.639C268.3 225.834 267.744 224.743 267.737 223.603V193.5C267.737 191.137 270.11 189.2 272.992 189.2H315ZM188.996 283.8V262.303C188.996 259.937 186.627 258.007 183.746 258.007L146.992 258C144.102 258 141.737 259.937 141.737 262.297V283.8H188.996Z" stroke="#1991D0" stroke-width="0.75" stroke-miterlimit="10" stroke-linecap="round" stroke-linejoin="round"/>
<path d="M141.737 223.604H204.737V240.8H141.737V223.604Z" stroke="#1991D0" stroke-width="0.75" stroke-miterlimit="10" stroke-linecap="round" stroke-linejoin="round"/>
<path d="M241.492 189.2C244.373 189.2 246.742 191.137 246.742 193.5V210.697C246.742 213.067 244.373 215 241.492 215H146.992C145.599 214.997 144.265 214.543 143.28 213.736C142.295 212.93 141.741 211.837 141.737 210.697V193.5C141.737 191.133 144.102 189.2 146.992 189.2H241.492Z" fill="#59C6A4" stroke="#1991D0" stroke-width="0.75" stroke-miterlimit="10" stroke-linecap="round" stroke-linejoin="round"/>
<path d="M267.737 236.497H320.25V245.1H267.737V236.497Z" stroke="#1991D0" stroke-width="0.75" stroke-miterlimit="10" stroke-linecap="round" stroke-linejoin="round"/>
<path d="M267.737 253.7H299.242V262.297H267.737V253.7Z" fill="#59C6A4" stroke="#1991D0" stroke-width="0.75" stroke-miterlimit="10" stroke-linecap="round" stroke-linejoin="round"/>
<path d="M378 296.7V292.403C377.999 290.121 376.891 287.933 374.921 286.32C372.95 284.706 370.278 283.8 367.492 283.8H94.4916C93.1127 283.8 91.7473 284.022 90.4731 284.453C89.199 284.885 88.0412 285.518 87.0658 286.317C86.0904 287.115 85.3165 288.063 84.7883 289.106C84.2601 290.149 83.988 291.267 83.9874 292.397V296.7L106.1 305.754C111.266 307.87 120.225 309.6 125.996 309.6H336.008C341.783 309.6 350.725 307.87 355.887 305.754L378 296.7Z" fill="#F9FDFF" stroke="#1991D0" stroke-width="1.25" stroke-miterlimit="10" stroke-linecap="round" stroke-linejoin="round"/>
<path d="M84.0042 296.7H378M262.5 283.8L259.085 287.718C258.073 288.881 255.83 289.82 254.104 289.82H207.892C206.174 289.82 203.931 288.881 202.915 287.718L199.5 283.8H262.5ZM199.487 258H246.742V266.597H199.487V258Z" stroke="#1991D0" stroke-width="0.75" stroke-miterlimit="10" stroke-linecap="round" stroke-linejoin="round"/>
<path d="M215.242 223.603H246.742V232.207H215.242V223.603ZM68.0862 75.5183H139.944V92.7183H68.0862V75.5183ZM122.842 137.6C122.842 125.192 128.818 113.947 138.499 105.615H68.0862V143.785H97.2888C104.898 139.745 113.773 137.597 122.842 137.6Z" fill="#59C6A4" stroke="#1991D0" stroke-width="0.75" stroke-miterlimit="10" stroke-linecap="round" stroke-linejoin="round"/>
<path d="M337.541 138.037C339.205 132.953 340.192 127.645 340.192 122.123C340.192 87.9229 306.344 60.2 264.583 60.2C235.402 60.2 210.151 73.7639 197.534 93.5955C191.735 91.9887 185.655 91.1661 179.533 91.1599C148.218 91.1599 122.837 111.955 122.837 137.6C96.7512 137.6 75.5916 154.931 75.5916 176.307C75.5916 195.622 92.8872 211.587 115.487 214.491V172.003C115.487 169.745 116.03 167.508 117.084 165.421C118.139 163.334 119.686 161.438 121.635 159.84C123.585 158.243 125.9 156.975 128.447 156.111C130.995 155.246 133.725 154.8 136.483 154.8H325.483C328.242 154.799 330.975 155.243 333.524 156.107C336.074 156.971 338.391 158.238 340.342 159.835C342.294 161.433 343.841 163.33 344.897 165.418C345.953 167.506 346.496 169.743 346.496 172.003V212.747C364.841 207.425 377.996 193.142 377.996 176.293C378 156.823 360.415 140.751 337.541 138.037Z" stroke="#1991D0" stroke-width="1.25" stroke-miterlimit="10" stroke-linecap="round" stroke-linejoin="round"/>
</svg>
